<svg xmlns="http://www.w3.org/2000/svg" version="1.1" xmlns:xlink="http://www.w3.org/1999/xlink" width="512" height="512" x="0" y="0" viewBox="0 0 1707 1707" style="enable-background:new 0 0 512 512" xml:space="preserve" fill-rule="evenodd" class=""><g><path d="M899 1585c-317 0-575-257-575-574s258-574 575-574c316 0 574 257 574 574s-258 574-574 574zm0-1101c-291 0-528 236-528 527s237 527 528 527c290 0 527-236 527-527s-237-527-527-527z" fill="#0E7967" opacity="1" data-original="#000000" class=""></path><path d="M899 1420c-226 0-409-184-409-409s183-409 409-409c225 0 408 184 408 409s-183 409-408 409zm0-771c-200 0-362 162-362 362s162 362 362 362c199 0 361-162 361-362s-162-362-361-362z" fill="#0E7967" opacity="1" data-original="#000000" class=""></path><path d="M899 720c-13 0-24-10-24-23v-71c0-13 11-24 24-24 12 0 23 11 23 24v71c0 13-11 23-23 23zM1121 812c-6 0-12-2-17-7-9-9-9-24 0-33l50-50c10-9 24-9 33 0 10 9 10 24 0 33l-50 50c-4 5-10 7-16 7zM1284 1034h-71c-13 0-24-10-24-23s11-23 24-23h71c13 0 23 10 23 23s-10 23-23 23zM1171 1307c-6 0-12-2-17-7l-50-50c-9-9-9-24 0-33s24-9 33 0l50 50c10 9 10 24 0 33-4 5-10 7-16 7zM899 1420c-13 0-24-11-24-24v-71c0-13 11-23 24-23 12 0 23 10 23 23v71c0 13-11 24-23 24zM626 1307c-6 0-12-2-16-7-10-9-10-24 0-33l50-50c9-9 24-9 33 0s9 24 0 33l-50 50c-5 5-11 7-17 7zM584 1034h-71c-13 0-23-10-23-23s10-23 23-23h71c13 0 24 10 24 23s-11 23-24 23zM676 812c-6 0-12-2-16-7l-50-50c-10-9-10-24 0-33 9-9 23-9 33 0l50 50c9 9 9 24 0 33-5 5-11 7-17 7zM986 1130c-6 0-12-3-17-7l-95-95c-4-5-7-11-7-17V814c0-13 11-23 24-23s23 10 23 23v187l88 89c9 9 9 24 0 33-4 4-10 7-16 7zM425 752H75c-13 0-24-10-24-23s11-23 24-23h350c13 0 24 10 24 23s-11 23-24 23zM366 893H149c-13 0-23-10-23-23s10-23 23-23h217c13 0 23 10 23 23s-10 23-23 23zM348 1034H24c-13 0-24-10-24-23s11-23 24-23h324c13 0 23 10 23 23s-10 23-23 23zM366 1175H149c-13 0-23-10-23-23s10-23 23-23h217c13 0 23 10 23 23s-10 23-23 23zM425 1316H75c-13 0-24-10-24-23s11-23 24-23h350c13 0 24 10 24 23s-11 23-24 23zM1310 1585H487c-13 0-23-10-23-23s10-24 23-24h823c13 0 23 11 23 24s-10 23-23 23z" fill="#0E7967" opacity="1" data-original="#000000" class=""></path><path d="M1447 980c-9 0-17-4-21-13-6-11-1-25 10-31 71-35 130-91 170-160 111-193 45-442-149-554-193-111-442-45-554 149-18 31-31 64-41 98-3 13-16 20-28 17-13-3-20-16-17-29 11-38 26-75 46-109 124-216 402-291 617-166 216 125 291 402 166 618-44 77-110 138-189 178-3 2-7 2-10 2z" fill="#0E7967" opacity="1" data-original="#000000" class=""></path><path d="M1410 327c-9 0-18-6-21-15l-60-148c-5-12 1-25 13-30s25 1 30 13l53 131 140-20c13-1 25 7 27 20 1 13-8 25-20 27l-158 22h-4zM879 390c-12 0-22-9-23-21-2-12 7-24 20-26l142-17 17-137c2-12 13-21 26-20 13 2 22 13 20 26l-19 155c-1 10-9 19-20 20l-160 20h-3zM1622 819c-10 0-18-6-22-15l-63-148c-4-10-1-22 8-28l124-94 28 38-110 82 56 132c5 12 0 26-12 31-3 1-6 2-9 2zM1357 729h-2c-7-1-14-5-17-10-60-90-144-158-244-198-11-4-17-16-14-28l16-61c3-9 11-16 21-17l226-22c10-1 19 5 23 14l95 206c4 9 2 20-5 27l-83 82c-4 5-10 7-16 7zm-227-243c92 40 170 103 230 184l52-52-81-177-194 19z" fill="#0E7967" opacity="1" data-original="#000000" class=""></path><path d="M1345 440c-4 0-8-1-12-3-11-7-15-21-8-32l65-113c7-11 21-15 32-9 11 7 15 21 9 32l-66 113c-4 8-12 12-20 12zM1559 670h-5l-119-24c-13-3-21-15-18-27 2-13 14-21 27-19l119 24c13 2 21 15 18 27-2 11-12 19-22 19zM1119 461c-6 0-13-2-18-8l-79-91c-9-10-8-24 2-33 9-8 24-7 33 2l80 92c8 9 7 24-3 33-4 3-10 5-15 5z" fill="#0E7967" opacity="1" data-original="#000000" class=""></path></g></svg>