<svg xmlns="http://www.w3.org/2000/svg" version="1.1" xmlns:xlink="http://www.w3.org/1999/xlink" width="512" height="512" x="0" y="0" viewBox="0 0 64 64" style="enable-background:new 0 0 512 512" xml:space="preserve" class=""><g><path d="M32 1a26 26 0 0 0-4.2 51.656l3.337 5.84a1 1 0 0 0 1.736 0l3.337-5.84A26 26 0 0 0 32 1zm3.435 49.751a1 1 0 0 0-.727.494L32 55.984l-2.708-4.739a1 1 0 0 0-.727-.494 24 24 0 1 1 6.87 0z" fill="#0E7967" opacity="1" data-original="#000000" class=""></path><path d="M32 7a20 20 0 1 0 20 20A20.023 20.023 0 0 0 32 7zm0 38a18 18 0 1 1 18-18 18.021 18.021 0 0 1-18 18zM21 61h22v2H21z" fill="#0E7967" opacity="1" data-original="#000000" class=""></path><path d="M45 17H19a1 1 0 0 0-1 1v18a1 1 0 0 0 1 1h26a1 1 0 0 0 1-1V18a1 1 0 0 0-1-1zM31 30.858a3.981 3.981 0 0 1 0-7.716zm2-7.716a3.981 3.981 0 0 1 0 7.716zM20 25h2v4h-2zm0 6h3a1 1 0 0 0 1-1v-6a1 1 0 0 0-1-1h-3v-4h11v2.09a5.993 5.993 0 0 0 0 11.82V35H20zm13 4v-2.09a5.993 5.993 0 0 0 0-11.82V19h11v4h-3a1 1 0 0 0-1 1v6a1 1 0 0 0 1 1h3v4zm11-10v4h-2v-4z" fill="#0E7967" opacity="1" data-original="#000000" class=""></path></g></svg>