<svg xmlns="http://www.w3.org/2000/svg" version="1.1" xmlns:xlink="http://www.w3.org/1999/xlink" width="512" height="512" x="0" y="0" viewBox="0 0 512 512" style="enable-background:new 0 0 512 512" xml:space="preserve" class=""><g><path d="M174.1 406.5c-23.5-11.4-52-1.6-63.4 21.9-11.6 22.7-1.2 52.7 21.9 63.4 17.1 8.4 38 5.4 52.1-7.1 25.3-21.7 19.6-64-10.6-78.2zm11.1 58.1c-.4.8-.8 1.6-1.2 2.3l-2.9-3.2c-.6-.6-1.5-.8-2.3-.5l-15.5 6.7c-.5.2-.8.6-1 1.1l-5.1 12.3c-.1.3-.2.6-.2 1-6.4.7-13-.3-19.2-3.3-17.3-8-25.1-30.4-16.4-47.3 8.7-18.1 31-25.1 48.2-15.9-.4.4-.6.9-.6 1.4l.4 15.6c0 .5.2 1 .6 1.4l12 11.5c.7.8 2.1.7 2.8-.1l3.6-3.7c1 6.8 0 14-3.2 20.7z" fill="#0E7967" opacity="1" data-original="#000000" class=""></path><path d="m155.6 439.4-16.2-8.4c-.7-.4-1.6-.3-2.2.2-.3.2-4.6 4.6-13 13.1-.6.6-.7 1.5-.4 2.2l7.7 17.1c.4.8 1.2 1.3 2.1 1.2l17.9-2.6c.9-.1 1.5-.8 1.7-1.6l3.3-19.1c.2-.8-.2-1.7-.9-2.1zM359.7 193.5c-3.3-8.9-8.2-17-14.6-24.1-4.8-20.1-12.8-39.2-23.7-56.7-1.4-2.6-3.3-4.8-5.6-6.6-3.1-2.3-6.6-3.1-9.2-3.6-10.5-2.3-21.2-4.4-31.9-6.2 5.6-7.2 6.9-17.5 7.8-26.2 4-37.6-20.5-59-60-44.8-3.4 1-6.6 2.5-9.5 4.6-16.8 12.9-5.6 53.8 2 70.8-21.2 1.8-38.1 14.9-48.3 33.2-4.4 7.1-8.3 15.4-6.5 24.1-10.8 11.4-17.4 21.5-13.3 39.1 1.1 5.8 2.3 11.6 3.6 17.4 1.8 8.1 8 17.3 14.1 26.1 3.1 4.6 6.1 8.9 7.8 12.3 3.8 7.5 4.3 12.7 12.6 17-3.5 13.6-6.4 29.3-4.3 45.5.2 1.5.9 2.8 2 3.8-.2 11.9 1.3 24 5.4 35.1 1.1 3.2 1.9 6.5 2.8 9.9 3.8 18.4 13.7 33.3 23 44.1 4.5 5.6 8.6 10.6 11.6 16.6 2.5 5.1 3.6 10.5 5.2 18 .8 3.7 1.7 7.4 2.2 11.5 1.1 10.8 5.3 23.2 19.9 20l1 1.6c5.1 7.1 14.9-.4 9.6-7.3 2.1-1.9 3.9-4 5.3-6.2 8.4 2.5 11.7-9.4 3-11.7-.4-4.8-1.7-9.5-3.9-13.8-3-6.2-3.9-13-2.8-19.7 6.8-.7 7.4-10.2.8-11.8-.1-1.7-.3-3.5-.6-5.3-1.4-7-8-13.3-15.3-12.8-2.6-7.7-.9-20.5-2.9-29.1-1.3-6.1-2.6-9.2-3.9-12-1.8-4-3.8-9.9-3.6-14.8.9-3.4 4.1-7.3 5.7-10.7 2.8 1.1 6.1-.3 7.4-3 2-4 3.1-9.2 4.2-14.2 9.3 24.1 12.2 50.2 26.8 72.8.9 1.6 2.2 2.9 2.9 4.6.2 1.1.3 2.3.2 3.5.3 7.3 2.7 13.8 5 20.2 2.2 5.6 3.7 10.5 4.5 16 .8 4.1 1.6 8.4 1.6 12.4 0 8.6-4 16.3-2.6 25.4-1.5 1.4-2.5 3.1-2.9 5.1-1.1 5.1 4.7 9.1 9.1 6.3 3 2.9 6.7 5.2 9.4 8.1 3.4 3.9 5.5 9.1 9.5 13-1.7 4.5-.1 9.8 5.4 10 2.8 0 5.1-1.9 5.8-4.5 1.7.3 3.3.5 4.9.5 2.4 8.8 14.4 5.7 11.8-2.8 14.9-8.8 4.8-25-1.5-35.3-4.3-7.8-5.5-15.2-10.7-23-2.4-21.9 4.6-41.8.8-65.2-.3-1.9-.9-3.1-1.4-4.5 0-1.3.1-2.5.4-3.8 1.5-11.2-1.3-22.7-7.8-31.8-.8-22.1-11.6-44.8-19.5-65.6 2.4-1.4 3.5-4.6 2.5-7.1l-1-2.7c-3-8.2-4.9-13.5-6.2-21.6 5.6-2 9.8-6.5 14.3-9.9 9.9-6.9 23.8-7.8 35-13.2 8.5-3.8 8.8-11.4 6.6-17zM270.4 71.3c-1.1 10-2.3 16.6-10.9 23.8-5.6 4.9-13.7 10.4-22.6 9.8-7.8-1-12.4-11.1-13.9-17.8-2.9-8.2-5.1-16.7-6-25.3 2.5-5.4 9.8-9.8 16.4-9.9 6.7 0 13 3.8 16 9.9 1.4 3 5.3 4.3 8.2 2.7 5.4-3 11.8.8 12.8 6.8zm-34.5 45.6c8.2.6 15.9-1.8 23.9-6.9-1.5 3.3-3.2 6.3-5 8.4-3.6 3.5-10.8 8.6-15.7 5.7-1.9-1.4-3.8-5.2-5.2-7.5.6.1 1.3.2 2 .3zm-10-80.1c23.5-7.7 39.2-5.1 44.3 16.6-4-1.9-8.7-2.4-13-1.5-9.1-12.4-26.7-15.6-39.8-7.3 1.2-4.8 4.4-6.6 8.5-7.8zM177.1 140c8.6-15.5 22.2-26.5 40.3-27.5 0 .1.1.1.1.2l7.6 12.8c1.6 2.7 3.6 6 6.9 8.4 10.1 7.1 23.6.8 31.3-7.1 4.5-4.9 7.6-12.1 10.1-18.6 10.2 1.8 20.5 3.8 30.6 6 1.5.3 3.4.8 4.4 1.4 1.1.9 1.9 2.1 2.6 3.3 9.6 15.4 16.7 32 21.3 49.5-8.9 2.9-18.1 4.5-26.3 6.1-3.3-4.4-6-9.3-8-14.5-1.2-3.1-4.7-4.6-7.8-3.4s-4.6 4.7-3.4 7.8c2.8 7.2 6.8 13.9 11.7 20-8-2.1-15.9 1.4-21.7 6.3-1.7 1.2-3.2 2.8-4.3 4.6-3.7 6.2-.1 13.2 1 15.4 2.8 5.5 6 10.8 9.7 15.8 2.1 3.1 5 5.9 8.6 7.2 1.2 8.2 2.9 13.9 5.3 20.6-14.5 0-29.5-5.9-43.7-10.9-19.1-6.7-35.7-9-49.3-6.9 8.6-26.5 9.1-49.7 1.4-73-1.9-5.8-10.3-5.3-11.6.6-1 4.7-3 9-5.8 12.8-6.2-4.9-15.2-14.1-16.4-22.3-.2-4.8 2.7-10 5.4-14.6zM232 320.1c-1.6 2.6-3.6 5.7-4.1 9.7-.3 2.5-.1 5 .3 7.5-10.2 5.8-22.3 4.9-32.2-1.1-1-6.9-1.3-13.9-1-20.9 6.6-4.6 16.8-7.1 24.2-7.5 5-.3 10.5 1.6 16.5 5.6-1.1 2.2-2.4 4.5-3.7 6.7zm-42.2-123.4c1.2-2.2 2.2-5.1 3.4-7.4 1.8-1.7 3.5-3.6 5-5.6 1.6 11.6 1.1 23.4-1.7 36-3.8-6.1-10-18.1-6.7-23zm-15.1 37c-5.1-7.5-11-16-12.3-21.9-1.3-5.7-2.5-11.4-3.6-17-2.4-10.8-.7-15.9 6.8-24.8 4.3 6.4 9.6 12 15.6 16.6-.6 1.3-1.4 3.3-1.9 4.2-5.6 9.9 0 21.8 1.8 25.7 3.3 7 7.2 13.1 10.9 18.5-.9 2.6-1.8 5.3-2.9 7.9-.9 2.3-.3 5.1 1.6 6.7-.7 2.5-1.5 5.3-2.3 8.1-.9-.9-1.4-2-2.3-4.1-.7-1.6-1.6-3.7-2.9-6.3-2-4-5.2-8.7-8.5-13.6zm77.6 166.4c.6.6 1.2 1.4 1.4 2.3.9 4.5.3 9.2-.3 13.4-1.4 9.1-.1 18.3 4 26.5 1.5 2.9 2.4 6.1 2.6 9.4.2 3.2-2.4 6.5-5 8.5-2.5 2-5 2.9-6.8 2.6-1.8-.4-2.6-6.2-3.2-10.1-.5-4.1-1.5-8.4-2.3-12.3-1.3-6.1-2.4-11.3-4.2-16.3 7.6-4.7 12.9-14.8 13.8-24zm-12-4.8c1 6-2.8 14.7-7.4 18.1-9.9-15.1-21.6-23.9-27.9-43.7-1.9-6.1-3.1-12.4-5.2-18.6 10.4 3.5 21.7 2.7 31.7-2 1.7 4 2.7 5.6 3.9 11.6.8 3.8.9 8.4 1 12.8.2 7.4.4 14.3 3.2 19.8.4.6.6 1.2.7 2zm79.2-56.8c5 7.5 6 16.6 4.4 25.4-7 5.8-22.8 8.5-31.5 3.2-4.6-7.6-7.8-16-10.5-24.3 11.5 0 27.3-2.1 37.6-4.3zm5.6 68.2c-.8 8.5-1.6 16.7-1.1 25.1-4.9.4-9.9-.9-14-3.6-1.1-9.5-3.1-19.2-6.6-27.9-2.5-6.5-4.5-12.3-4.4-18.8 9.1 1.1 19.1-.7 26.9-4.7 1 10.5.1 20.3-.8 29.9zm13.6 61.2c2.7 4.6 7.3 12.3 5.1 14.6-2.5 2.8-8 2.5-11.9 1.4-2.5-.7-4.2-3.2-6.8-7.3-1.5-2.3-3-4.7-5-7s-4.3-4.1-6.4-5.7c-3.7-2.9-5.7-4.6-6.2-7.2-.8-4.6 1-10.5 1.9-15.5 5.6 2.2 11.8 3 17.8 2.1 1.8 3.1 3.1 6.2 4.4 9.7 1.8 4.8 4.2 10.2 7.1 14.9zm-22.5-141c-11 2.4-27.2 4-37.9 4-4.5-15.7-8.6-31.8-16.7-46.4-1-1.9-3-3-5.1-3.1-2.1 0-4.1 1-5.2 2.8-3.8 6.1-5.1 13.7-6.7 20.5-8.9-6.5-17.7-9.5-25.9-9-7.5.4-17.9 2.6-26.4 7.2.5-19.6 6.3-36.2 11.4-54.2 29.8-6.7 61.9 17.1 93 17.4 7.1 19.3 17.4 41.1 19.5 60.8zM348.8 199c-12 5.6-26.1 6.4-37.5 14.6-5 3.2-13.4 14.2-18.2 5.8-3.3-4.4-6.2-9.2-8.7-14.2-1.3-2.6-1.4-3.7-1.4-3.9 2.5-2.4 6-4.8 9-5.4 2.1-.4 3.9 0 4.4.3 1.5 2.9 5.5 4.1 8.3 2.4 5.2-3 8.9-7.9 10.3-13.7 7.1-1.4 15.1-3.1 22.7-5.7 4.9 6 8.9 12.6 11.1 19.8z" fill="#0E7967" opacity="1" data-original="#000000" class=""></path></g></svg>