<svg xmlns="http://www.w3.org/2000/svg" version="1.1" xmlns:xlink="http://www.w3.org/1999/xlink" width="512" height="512" x="0" y="0" viewBox="0 0 64 64" style="enable-background:new 0 0 512 512" xml:space="preserve" class=""><g><path d="M50 14.174V10h6a1 1 0 0 0 .832-1.554L55.202 6l1.63-2.445A.998.998 0 0 0 56 2h-7a1 1 0 0 0-1 1v10.672c-4.38-1.003-9.488-1.597-15-1.662V9h6a1 1 0 0 0 .832-1.554L38.202 5l1.63-2.445A.998.998 0 0 0 39 1h-7a1 1 0 0 0-1 1v10.009c-5.938.07-11.404.755-16 1.903V10h6a1 1 0 0 0 .832-1.554L20.202 6l1.63-2.445A.998.998 0 0 0 21 2h-7a1 1 0 0 0-1 1v11.457C5.659 16.632 1 20.066 1 24v27c0 6.729 13.617 12 31 12s31-5.271 31-12V24c0-4.11-5.085-7.673-13-9.826zM50 4h4.131l-.963 1.445a1 1 0 0 0 0 1.109L54.131 8H50zM33 3h4.131l-.963 1.445a1 1 0 0 0 0 1.109L37.131 7H33zM15 4h4.131l-.963 1.445a1 1 0 0 0 0 1.109L19.131 8H15zm17 10c17.347 0 29 5.171 29 10 0 2.106-2.217 4.276-6.154 6.055C50.895 25.752 42.074 23 32 23s-18.895 2.752-22.845 7.055C5.217 28.276 3 26.106 3 24c0-4.829 11.653-10 29-10zm19 38.436V33.543c1.44-.427 2.781-.9 4-1.419v18.812a33.95 33.95 0 0 1-4 1.5zm-11.021 2.157A7.94 7.94 0 0 0 39 51.136V35.701a72.427 72.427 0 0 0 4-.453v18.966c-.983.145-1.99.273-3.021.379zM32 34c-8.582 0-15.767-1.267-20.84-3.13C14.956 27.321 23.042 25 32 25c8.957 0 17.044 2.321 20.84 5.87C47.767 32.733 40.582 34 32 34zm-19-.457v18.901a33.642 33.642 0 0 1-4-1.5v-18.82c1.219.519 2.56.992 4 1.419zm2 .544c1.27.317 2.606.599 4 .842v18.957a54.776 54.776 0 0 1-4-.876zm6 1.161c1.292.184 2.628.335 4 .453v15.434a7.935 7.935 0 0 0-.979 3.456A67.548 67.548 0 0 1 21 54.216zm6 .601a82.33 82.33 0 0 0 4 .141v11.079a7.97 7.97 0 0 0-4 1.695zm6 .142a82.33 82.33 0 0 0 4-.141v12.916a7.952 7.952 0 0 0-4-1.695zm12-1.062a56.856 56.856 0 0 0 4-.842v18.917a54.872 54.872 0 0 1-4 .878zM3 28.315c1 1.033 2.348 1.995 4 2.864v18.733C4.472 48.425 3 46.734 3 45zM3 51v-1.654c3.41 3.557 10.991 6.258 21 7.254v4.01C11.167 59.321 3 55.042 3 51zm23 9.783V55c0-3.309 2.691-6 6-6s6 2.691 6 6v5.783c-1.911.14-3.913.217-6 .217s-4.089-.077-6-.217zm14-.173v-4.007c10.001-.997 17.588-3.714 21-7.271V51c0 4.042-8.167 8.321-21 9.61zm17-10.712v-18.72c1.652-.869 3-1.83 4-2.864V45c0 1.724-1.474 3.412-4 4.898z" fill="#0E7967" opacity="1" data-original="#000000" class=""></path></g></svg>